<svg width="35" height="35" viewBox="0 0 35 35" fill="none" xmlns="http://www.w3.org/2000/svg">
<path d="M20.4167 22.848C19.6511 23.1601 18.8055 23.3334 17.9167 23.3334C14.4649 23.3334 11.6667 20.7216 11.6667 17.5C11.6667 14.2784 14.4649 11.6667 17.9167 11.6667C18.8055 11.6667 19.6511 11.8399 20.4167 12.1521" stroke="#008080" stroke-width="3.75" stroke-linecap="round"/>
<path d="M10.2084 4.86767C12.3534 3.62685 14.8438 2.91669 17.5 2.91669C25.5541 2.91669 32.0834 9.44586 32.0834 17.5C32.0834 25.5541 25.5541 32.0834 17.5 32.0834C9.44586 32.0834 2.91669 25.5541 2.91669 17.5C2.91669 14.8438 3.62685 12.3534 4.86767 10.2084" stroke="#008080" stroke-width="3.75" stroke-linecap="round"/>
</svg>
