<svg width="40" height="40" viewBox="0 0 40 40" fill="none" xmlns="http://www.w3.org/2000/svg">
<g clip-path="url(#clip0_23_103)">
<path d="M36.8 0H3.2C2.3516 0.000961824 1.53823 0.338413 0.938321 0.938321C0.338413 1.53823 0.000961824 2.3516 0 3.2V36.8C0.000970276 37.6484 0.338424 38.4618 0.93833 39.0617C1.53824 39.6616 2.35161 39.999 3.2 40H36.8C37.6484 39.999 38.4618 39.6616 39.0617 39.0617C39.6616 38.4618 39.999 37.6484 40 36.8V3.2C39.999 2.3516 39.6616 1.53823 39.0617 0.938321C38.4618 0.338413 37.6484 0.000961824 36.8 0ZM13.6 29.6002C13.6 30.0245 13.4314 30.4315 13.1314 30.7316C12.8313 31.0316 12.4243 31.2002 12 31.2002C11.5757 31.2002 11.1687 31.0316 10.8686 30.7316C10.5686 30.4315 10.4 30.0245 10.4 29.6002V16.8002C10.4 16.3759 10.5686 15.9689 10.8686 15.6688C11.1687 15.3688 11.5757 15.2002 12 15.2002C12.4243 15.2002 12.8313 15.3688 13.1314 15.6688C13.4314 15.9689 13.6 16.3759 13.6 16.8002V29.6002ZM12 12.8C11.5253 12.8 11.0613 12.6592 10.6666 12.3955C10.272 12.1318 9.96434 11.757 9.78269 11.3184C9.60104 10.8799 9.55351 10.3973 9.64612 9.93178C9.73872 9.46623 9.9673 9.03859 10.3029 8.70294C10.6386 8.3673 11.0662 8.13872 11.5318 8.04611C11.9973 7.95351 12.4799 8.00104 12.9184 8.18269C13.357 8.36434 13.7318 8.67195 13.9955 9.06663C14.2592 9.46131 14.4 9.92533 14.4 10.4C14.4 11.0365 14.1471 11.647 13.6971 12.0971C13.247 12.5471 12.6365 12.8 12 12.8ZM31.2 29.6002C31.2 30.0245 31.0314 30.4315 30.7314 30.7316C30.4313 31.0316 30.0243 31.2002 29.6 31.2002C29.1757 31.2002 28.7687 31.0316 28.4686 30.7316C28.1686 30.4315 28 30.0245 28 29.6002V22.4002C28 21.3393 27.5786 20.3219 26.8284 19.5718C26.0783 18.8216 25.0609 18.4002 24 18.4002C22.9391 18.4002 21.9217 18.8216 21.1716 19.5718C20.4214 20.3219 20 21.3393 20 22.4002V29.6002C20 30.0245 19.8314 30.4315 19.5314 30.7316C19.2313 31.0316 18.8243 31.2002 18.4 31.2002C17.9757 31.2002 17.5687 31.0316 17.2686 30.7316C16.9686 30.4315 16.8 30.0245 16.8 29.6002V16.8002C16.7999 16.4069 16.9447 16.0273 17.2067 15.734C17.4687 15.4407 17.8296 15.2543 18.2205 15.2102C18.6113 15.1662 19.0047 15.2678 19.3254 15.4955C19.6461 15.7231 19.8716 16.061 19.959 16.4445C21.041 15.7092 22.3031 15.2827 23.6094 15.211C24.9157 15.1393 26.2168 15.4251 27.3728 16.0376C28.5288 16.6501 29.496 17.5661 30.1704 18.6872C30.8447 19.8082 31.2007 21.0919 31.2 22.4002V29.6002Z" fill="#008080"/>
</g>
<defs>
<clipPath id="clip0_23_103">
<rect width="40" height="40" fill="white"/>
</clipPath>
</defs>
</svg>
