<svg width="45" height="45" viewBox="0 0 45 45" fill="none" xmlns="http://www.w3.org/2000/svg">
<path fill-rule="evenodd" clip-rule="evenodd" d="M6.49588 6.49588C3.75 9.24174 3.75 13.6612 3.75 22.5C3.75 31.3388 3.75 35.7583 6.49588 38.5041C9.24174 41.25 13.6612 41.25 22.5 41.25C31.3388 41.25 35.7583 41.25 38.5041 38.5041C41.25 35.7583 41.25 31.3388 41.25 22.5C41.25 13.6612 41.25 9.24174 38.5041 6.49588C35.7583 3.75 31.3388 3.75 22.5 3.75C13.6612 3.75 9.24174 3.75 6.49588 6.49588ZM25.2902 12.0861C26.0404 12.2871 26.4855 13.0582 26.2845 13.8084L21.4316 31.9194C21.2306 32.6696 20.4594 33.1149 19.7092 32.9139C18.9591 32.7128 18.5139 31.9417 18.715 31.1916L23.5678 13.0805C23.7688 12.3303 24.54 11.8851 25.2902 12.0861ZM28.0682 15.8806C28.6174 15.3315 29.5076 15.3315 30.0568 15.8806L30.4476 16.2713C31.6388 17.4624 32.6321 18.4558 33.3146 19.3504C34.0352 20.2946 34.5405 21.2923 34.5405 22.5C34.5405 23.7077 34.0352 24.7054 33.3146 25.6496C32.6321 26.5442 31.6388 27.5376 30.4476 28.7287L30.0568 29.1193C29.5076 29.6685 28.6174 29.6685 28.0682 29.1193C27.519 28.5701 27.519 27.6799 28.0682 27.1307L28.3898 26.8089C29.6679 25.5308 30.5244 24.6701 31.0787 23.9436C31.6082 23.2496 31.728 22.8456 31.728 22.5C31.728 22.1544 31.6082 21.7504 31.0787 21.0564C30.5244 20.3299 29.6679 19.4692 28.3898 18.1911L28.0682 17.8694C27.519 17.3202 27.519 16.4298 28.0682 15.8806ZM14.9435 15.8806C15.4927 15.3315 16.383 15.3315 16.9322 15.8806C17.4814 16.4298 17.4814 17.3202 16.9322 17.8694L16.6105 18.1911C15.3324 19.4692 14.476 20.3299 13.9217 21.0564C13.3921 21.7504 13.2724 22.1544 13.2724 22.5C13.2724 22.8456 13.3921 23.2496 13.9217 23.9436C14.476 24.6701 15.3324 25.5308 16.6105 26.8089L16.9322 27.1307C17.4814 27.6799 17.4814 28.5701 16.9322 29.1193C16.383 29.6685 15.4927 29.6685 14.9435 29.1193L14.5528 28.7287C13.3616 27.5376 12.3682 26.5442 11.6857 25.6496C10.9652 24.7054 10.4599 23.7077 10.4599 22.5C10.4599 21.2923 10.9652 20.2946 11.6857 19.3504C12.3682 18.4558 13.3616 17.4625 14.5528 16.2713L14.9435 15.8806Z" fill="#008080"/>
</svg>
