<svg width="50" height="50" viewBox="0 0 50 50" fill="none" xmlns="http://www.w3.org/2000/svg">
<g clip-path="url(#clip0_1_25)">
<path fill-rule="evenodd" clip-rule="evenodd" d="M3.66117 3.66117C-2.98023e-07 7.32232 0 13.2149 0 25C0 36.785 -2.98023e-07 42.6777 3.66117 46.3387C7.32232 50 13.2149 50 25 50C36.785 50 42.6777 50 46.3387 46.3387C50 42.6777 50 36.785 50 25C50 13.2149 50 7.32232 46.3387 3.66117C42.6777 -2.98023e-07 36.785 0 25 0C13.2149 0 7.32232 -2.98023e-07 3.66117 3.66117ZM28.7203 11.1148C29.7205 11.3828 30.314 12.4109 30.046 13.4112L23.5755 37.5593C23.3075 38.5595 22.2792 39.1533 21.279 38.8853C20.2787 38.617 19.6852 37.589 19.9533 36.5887L26.4237 12.4406C26.6917 11.4404 27.72 10.8467 28.7203 11.1148ZM32.4242 16.1742C33.1565 15.442 34.3435 15.442 35.0758 16.1742L35.5968 16.695C37.185 18.2833 38.5095 19.6077 39.4195 20.8005C40.3802 22.0595 41.054 23.3897 41.054 25C41.054 26.6103 40.3802 27.9405 39.4195 29.1995C38.5095 30.3923 37.185 31.7167 35.5968 33.305L35.0758 33.8258C34.3435 34.558 33.1565 34.558 32.4242 33.8258C31.692 33.0935 31.692 31.9065 32.4242 31.1742L32.853 30.7453C34.5573 29.041 35.6993 27.8935 36.4383 26.9248C37.1443 25.9995 37.304 25.4608 37.304 25C37.304 24.5392 37.1443 24.0005 36.4383 23.0752C35.6993 22.1065 34.5573 20.959 32.853 19.2548L32.4242 18.8258C31.692 18.0936 31.692 16.9064 32.4242 16.1742ZM14.9247 16.1742C15.6569 15.442 16.8441 15.442 17.5763 16.1742C18.3085 16.9064 18.3085 18.0936 17.5763 18.8258L17.1474 19.2548C15.4432 20.959 14.3013 22.1065 13.5622 23.0752C12.8561 24.0005 12.6965 24.5392 12.6965 25C12.6965 25.4608 12.8561 25.9995 13.5622 26.9248C14.3013 27.8935 15.4432 29.041 17.1474 30.7453L17.5763 31.1742C18.3085 31.9065 18.3085 33.0935 17.5763 33.8258C16.8441 34.558 15.6569 34.558 14.9247 33.8258L14.4038 33.305C12.8154 31.7167 11.4909 30.3923 10.5809 29.1995C9.62027 27.9405 8.94652 26.6103 8.94652 25C8.94652 23.3897 9.62027 22.0595 10.5809 20.8005C11.4909 19.6077 12.8154 18.2833 14.4038 16.695L14.9247 16.1742Z" fill="#008080"/>
</g>
<defs>
<clipPath id="clip0_1_25">
<rect width="50" height="50" fill="white"/>
</clipPath>
</defs>
</svg>
