<svg width="40" height="40" viewBox="0 0 40 40" fill="none" xmlns="http://www.w3.org/2000/svg">
<g clip-path="url(#clip0_23_111)">
<path d="M17.3359 23.8516L23.8828 20.0078L17.3359 16.1641V23.8516Z" fill="#008080"/>
<path d="M36.875 0H3.125C1.39844 0 0 1.39844 0 3.125V36.875C0 38.6016 1.39844 40 3.125 40H36.875C38.6016 40 40 38.6016 40 36.875V3.125C40 1.39844 38.6016 0 36.875 0ZM30 23.5781C30 27.0234 26.5547 27.0234 26.5547 27.0234H13.4453C10 27.0234 10 23.5781 10 23.5781V16.4297C10 12.9844 13.4453 12.9844 13.4453 12.9844H26.5547C30 12.9844 30 16.4297 30 16.4297V23.5781Z" fill="#008080"/>
</g>
<defs>
<clipPath id="clip0_23_111">
<rect width="40" height="40" fill="white"/>
</clipPath>
</defs>
</svg>
